<svg width="411" height="648" viewBox="0 0 411 648" fill="none" xmlns="http://www.w3.org/2000/svg">
<path d="M213.335 648L213.335 187.2C213.335 168.35 228.618 153.067 247.468 153.067C266.318 153.067 281.601 168.35 281.601 187.2L281.601 204.267L298.668 204.267L298.668 187.2C298.668 158.921 275.747 136 247.468 136C219.189 136 196.268 158.921 196.268 187.2L196.268 648L213.335 648Z" fill="#61DAFB"/>
<path d="M0.00212362 392C25.9261 420.279 69.8641 422.182 98.1441 396.258C99.6291 394.901 101.045 393.485 102.402 392C128.395 420.279 172.392 422.131 200.672 396.13C202.106 394.816 203.488 393.433 204.802 392L205.826 393.024C232.339 420.757 276.303 421.739 304.036 395.234C305.128 394.193 306.186 393.109 307.202 392C333.195 420.279 377.192 422.131 405.472 396.13C406.906 394.816 408.288 393.433 409.602 392C409.602 505.152 322.05 596.8 214.018 596.8L195.586 596.8C87.5541 596.8 0.00211373 505.152 0.00212362 392Z" fill="#61DAFB"/>
<path d="M52.1411 531.179C138.583 430.571 314.711 429.632 404.909 436.715C407.998 422.012 409.568 407.028 409.602 392C383.609 420.279 339.612 422.131 311.332 396.13C309.898 394.816 308.525 393.433 307.202 392C281.278 420.279 237.34 422.199 209.06 396.275C207.951 395.251 206.867 394.201 205.826 393.109L204.802 392C178.809 420.279 134.812 422.131 106.532 396.13C105.098 394.816 103.725 393.433 102.402 392C76.4781 420.279 32.5401 422.182 4.26014 396.258C2.78414 394.901 1.35912 393.485 0.00211788 392C-0.227887 443.209 18.3231 492.727 52.1411 531.179Z" fill="#49CCEF"/>
<path d="M411 183.042C411 155.816 376.904 130.014 324.628 114.014C336.692 60.7347 331.33 18.3461 307.705 4.775C302.26 1.59167 295.893 0.0837707 288.94 0.0837707V18.7649C292.793 18.7649 295.893 19.5189 298.49 20.943C309.884 27.4772 314.826 52.3575 310.973 84.3584C310.051 92.233 308.543 100.526 306.7 108.987C290.28 104.966 272.352 101.867 253.503 99.8563C242.193 84.3584 230.465 70.2847 218.653 57.9702C245.963 32.5873 271.598 18.6812 289.024 18.6812V0C265.986 0 235.827 16.4193 205.332 44.9018C174.838 16.5869 144.679 0.335089 121.641 0.335089V19.0162C138.983 19.0162 164.702 32.8386 192.012 58.054C180.284 70.3685 168.555 84.3584 157.413 99.8563C138.48 101.867 120.552 104.966 104.132 109.071C102.205 100.694 100.781 92.5681 99.776 84.7773C95.8386 52.7764 100.698 27.8961 112.007 21.2781C114.52 19.7702 117.788 19.1 121.641 19.1V0.41886C114.604 0.41886 108.237 1.92676 102.708 5.11009C79.1673 18.6812 73.8895 60.986 86.0369 114.097C33.9289 130.182 0 155.9 0 183.042C0 210.268 34.0964 236.07 86.372 252.07C74.3084 305.349 79.67 347.738 103.295 361.309C108.74 364.492 115.107 366 122.144 366C145.182 366 175.341 349.581 205.835 321.098C236.329 349.413 266.488 365.665 289.526 365.665C296.563 365.665 302.93 364.157 308.459 360.974C332 347.403 337.278 305.098 325.131 251.986C377.071 235.986 411 210.184 411 183.042ZM301.925 127.166C298.825 137.973 294.972 149.114 290.615 160.256C287.181 153.554 283.578 146.852 279.641 140.151C275.787 133.449 271.682 126.915 267.577 120.548C279.473 122.307 290.95 124.485 301.925 127.166ZM263.556 216.383C257.022 227.692 250.32 238.415 243.366 248.384C230.884 249.473 218.234 250.06 205.5 250.06C192.85 250.06 180.2 249.473 167.801 248.468C160.848 238.499 154.062 227.86 147.528 216.634C141.161 205.66 135.38 194.519 130.103 183.293C135.297 172.068 141.161 160.842 147.444 149.868C153.978 138.559 160.68 127.836 167.634 117.867C180.116 116.778 192.766 116.192 205.5 116.192C218.15 116.192 230.8 116.778 243.199 117.783C250.152 127.752 256.938 138.391 263.472 149.617C269.839 160.591 275.62 171.733 280.897 182.958C275.62 194.184 269.839 205.409 263.556 216.383ZM290.615 205.493C295.139 216.718 298.993 227.944 302.176 238.834C291.202 241.515 279.641 243.777 267.661 245.536C271.766 239.085 275.871 232.467 279.725 225.682C283.578 218.98 287.181 212.195 290.615 205.493ZM205.668 294.878C197.876 286.835 190.085 277.872 182.378 268.07C189.918 268.406 197.625 268.657 205.416 268.657C213.291 268.657 221.082 268.489 228.706 268.07C221.166 277.872 213.375 286.835 205.668 294.878ZM143.339 245.536C131.443 243.777 119.966 241.599 108.991 238.918C112.091 228.111 115.945 216.97 120.301 205.828C123.736 212.53 127.338 219.231 131.275 225.933C135.213 232.635 139.234 239.169 143.339 245.536ZM205.249 71.2062C213.04 79.2483 220.831 88.2119 228.538 98.0133C220.998 97.6782 213.291 97.4269 205.5 97.4269C197.625 97.4269 189.834 97.5944 182.211 98.0133C189.75 88.2119 197.541 79.2483 205.249 71.2062ZM143.255 120.548C139.15 126.998 135.045 133.616 131.192 140.402C127.338 147.104 123.736 153.805 120.301 160.507C115.777 149.282 111.923 138.056 108.74 127.166C119.714 124.569 131.275 122.307 143.255 120.548ZM67.4389 225.431C37.7825 212.781 18.598 196.194 18.598 183.042C18.598 169.89 37.7825 153.219 67.4389 140.653C74.6435 137.554 82.5183 134.789 90.6445 132.192C95.4197 148.612 101.703 165.701 109.494 183.209C101.787 200.634 95.5873 217.64 90.8959 233.975C82.6021 231.378 74.7273 228.53 67.4389 225.431ZM112.51 345.141C101.116 338.607 96.1737 313.726 100.027 281.725C100.949 273.851 102.457 265.557 104.3 257.096C120.72 261.117 138.648 264.217 157.497 266.227C168.807 281.725 180.535 295.799 192.347 308.114C165.037 333.496 139.402 347.403 121.976 347.403C118.206 347.319 115.023 346.565 112.51 345.141ZM311.224 281.306C315.161 313.307 310.302 338.188 298.993 344.806C296.48 346.314 293.212 346.984 289.359 346.984C272.017 346.984 246.298 333.161 218.988 307.946C230.716 295.631 242.445 281.642 253.587 266.144C272.52 264.133 290.448 261.034 306.868 256.929C308.795 265.39 310.302 273.516 311.224 281.306ZM343.477 225.431C336.273 228.53 328.398 231.295 320.272 233.892C315.497 217.472 309.213 200.383 301.422 182.874C309.13 165.45 315.329 148.444 320.02 132.108C328.314 134.705 336.189 137.554 343.561 140.653C373.217 153.303 392.402 169.89 392.402 183.042C392.318 196.194 373.134 212.865 343.477 225.431Z" fill="#61DAFB"/>
<path d="M205.5 221C226.763 221 244 203.987 244 183C244 162.013 226.763 145 205.5 145C184.237 145 167 162.013 167 183C167 203.987 184.237 221 205.5 221Z" fill="#61DAFB"/>
</svg>
